<?xml version="1.0" standalone="no"?>
<!DOCTYPE svg PUBLIC "-//W3C//DTD SVG 20010904//EN"
 "http://www.w3.org/TR/2001/REC-SVG-20010904/DTD/svg10.dtd">
<svg version="1.0" xmlns="http://www.w3.org/2000/svg"
 width="512.000000pt" height="512.000000pt" viewBox="0 0 512.000000 512.000000"
 preserveAspectRatio="xMidYMid meet">
<metadata>
Created by potrace 1.14, written by Peter Selinger 2001-2017
</metadata>
<g transform="translate(0.000000,512.000000) scale(0.100000,-0.100000)"
fill="#000000" stroke="none">
<path d="M2427 4904 c-2 -2 -29 -6 -60 -9 -811 -61 -1556 -619 -1882 -1410
-33 -78 -79 -210 -90 -255 -2 -8 -15 -60 -29 -115 -22 -89 -28 -120 -42 -215
-31 -224 -24 -557 17 -780 159 -860 784 -1567 1601 -1810 56 -17 116 -33 133
-35 16 -3 53 -10 80 -15 163 -31 245 -38 440 -35 187 3 221 6 375 36 496 95
942 354 1270 740 93 109 180 224 180 239 0 3 -83 6 -184 5 l-184 -1 -28 -34
c-42 -52 -191 -199 -256 -253 -86 -72 -237 -169 -356 -230 -147 -75 -375 -153
-502 -172 -24 -4 -47 -8 -50 -10 -14 -8 -186 -19 -305 -19 -120 0 -259 9 -288
19 -7 2 -28 6 -47 9 -149 22 -350 90 -523 178 -608 311 -1022 937 -1084 1638
-42 482 74 951 332 1345 130 197 292 366 510 533 183 139 522 284 755 322 41
7 84 14 95 16 130 24 439 18 585 -11 14 -3 34 -7 46 -9 279 -53 629 -223 850
-413 183 -158 319 -319 444 -527 121 -202 230 -503 256 -710 3 -22 7 -43 9
-46 16 -26 24 -354 12 -500 -11 -129 -41 -293 -75 -405 l-18 -60 -293 0 -293
0 -22 40 c-12 22 -55 103 -95 180 -117 223 -181 345 -221 420 -21 39 -70 133
-110 210 -40 77 -89 172 -110 210 -21 39 -63 120 -95 180 -32 61 -81 155 -110
210 -29 55 -77 147 -108 205 -30 58 -83 159 -118 225 -114 217 -209 399 -242
463 -17 34 -34 62 -37 62 -3 0 -22 -33 -43 -72 -20 -40 -65 -127 -100 -193
-136 -257 -189 -358 -307 -585 -67 -129 -135 -257 -150 -285 -15 -27 -60 -113
-100 -190 -73 -141 -133 -254 -220 -420 -26 -49 -78 -148 -115 -220 -37 -71
-87 -166 -110 -210 -74 -140 -130 -246 -213 -406 l-81 -155 184 0 183 0 57
111 c32 60 74 142 95 180 20 39 65 124 100 190 34 66 75 143 90 170 15 28 53
100 85 160 32 61 81 155 110 210 29 55 79 152 112 215 82 157 185 353 255 485
32 61 81 156 110 213 29 56 55 102 58 102 3 0 20 -28 37 -63 18 -34 67 -127
109 -207 171 -327 200 -382 282 -540 46 -91 96 -184 109 -208 14 -24 23 -46
20 -48 -4 -5 -133 -6 -312 -4 l-50 0 -95 185 c-52 102 -97 185 -100 185 -5 0
-27 -42 -215 -405 -42 -82 -95 -183 -117 -222 l-39 -73 557 -2 557 -3 64 -125
c36 -69 100 -190 142 -270 42 -80 87 -165 100 -191 l24 -45 488 0 489 0 39
101 c71 183 108 319 137 495 2 14 6 34 9 45 25 117 26 536 1 685 -3 14 -7 41
-10 60 -35 220 -120 478 -227 692 -72 144 -202 340 -302 457 -53 61 -260 265
-302 296 -22 16 -42 32 -45 35 -3 4 -27 22 -55 41 -27 18 -52 37 -55 40 -8 9
-149 94 -215 129 -120 64 -307 138 -440 175 -66 17 -75 20 -155 36 -77 16 -78
16 -140 24 -30 3 -68 9 -85 11 -39 7 -332 14 -338 8z"/>
</g>
</svg>
